<svg xmlns="http://www.w3.org/2000/svg" viewBox="0 0 200 200" width="200" height="200">
  <!-- White background -->
  <rect width="200" height="200" fill="white"/>
  
  <!-- QR Code Pattern -->
  <!-- Top-left finder pattern -->
  <rect x="10" y="10" width="50" height="50" fill="black"/>
  <rect x="20" y="20" width="30" height="30" fill="white"/>
  <rect x="25" y="25" width="20" height="20" fill="black"/>
  
  <!-- Top-right finder pattern -->
  <rect x="140" y="10" width="50" height="50" fill="black"/>
  <rect x="150" y="20" width="30" height="30" fill="white"/>
  <rect x="155" y="25" width="20" height="20" fill="black"/>
  
  <!-- Bottom-left finder pattern -->
  <rect x="10" y="140" width="50" height="50" fill="black"/>
  <rect x="20" y="150" width="30" height="30" fill="white"/>
  <rect x="25" y="155" width="20" height="20" fill="black"/>
  
  <!-- Data modules (random pattern for demo) -->
  <rect x="70" y="10" width="8" height="8" fill="black"/>
  <rect x="80" y="10" width="8" height="8" fill="black"/>
  <rect x="100" y="10" width="8" height="8" fill="black"/>
  <rect x="120" y="10" width="8" height="8" fill="black"/>
  
  <rect x="10" y="70" width="8" height="8" fill="black"/>
  <rect x="10" y="80" width="8" height="8" fill="black"/>
  <rect x="10" y="100" width="8" height="8" fill="black"/>
  <rect x="10" y="120" width="8" height="8" fill="black"/>
  
  <rect x="70" y="70" width="8" height="8" fill="black"/>
  <rect x="80" y="80" width="8" height="8" fill="black"/>
  <rect x="90" y="70" width="8" height="8" fill="black"/>
  <rect x="100" y="80" width="8" height="8" fill="black"/>
  <rect x="110" y="70" width="8" height="8" fill="black"/>
  <rect x="120" y="80" width="8" height="8" fill="black"/>
  
  <rect x="70" y="90" width="8" height="8" fill="black"/>
  <rect x="90" y="90" width="8" height="8" fill="black"/>
  <rect x="110" y="90" width="8" height="8" fill="black"/>
  <rect x="130" y="90" width="8" height="8" fill="black"/>
  
  <rect x="80" y="100" width="8" height="8" fill="black"/>
  <rect x="100" y="100" width="8" height="8" fill="black"/>
  <rect x="120" y="100" width="8" height="8" fill="black"/>
  
  <rect x="70" y="110" width="8" height="8" fill="black"/>
  <rect x="90" y="110" width="8" height="8" fill="black"/>
  <rect x="110" y="110" width="8" height="8" fill="black"/>
  <rect x="130" y="110" width="8" height="8" fill="black"/>
  
  <rect x="80" y="120" width="8" height="8" fill="black"/>
  <rect x="100" y="120" width="8" height="8" fill="black"/>
  <rect x="120" y="120" width="8" height="8" fill="black"/>
  
  <rect x="70" y="130" width="8" height="8" fill="black"/>
  <rect x="90" y="130" width="8" height="8" fill="black"/>
  <rect x="110" y="130" width="8" height="8" fill="black"/>
  <rect x="130" y="130" width="8" height="8" fill="black"/>
  
  <rect x="140" y="70" width="8" height="8" fill="black"/>
  <rect x="150" y="80" width="8" height="8" fill="black"/>
  <rect x="160" y="70" width="8" height="8" fill="black"/>
  <rect x="170" y="80" width="8" height="8" fill="black"/>
  <rect x="180" y="70" width="8" height="8" fill="black"/>
  <rect x="190" y="80" width="8" height="8" fill="black"/>
  
  <rect x="140" y="90" width="8" height="8" fill="black"/>
  <rect x="160" y="90" width="8" height="8" fill="black"/>
  <rect x="180" y="90" width="8" height="8" fill="black"/>
  
  <rect x="150" y="100" width="8" height="8" fill="black"/>
  <rect x="170" y="100" width="8" height="8" fill="black"/>
  <rect x="190" y="100" width="8" height="8" fill="black"/>
  
  <rect x="140" y="110" width="8" height="8" fill="black"/>
  <rect x="160" y="110" width="8" height="8" fill="black"/>
  <rect x="180" y="110" width="8" height="8" fill="black"/>
  
  <rect x="150" y="120" width="8" height="8" fill="black"/>
  <rect x="170" y="120" width="8" height="8" fill="black"/>
  
  <rect x="140" y="130" width="8" height="8" fill="black"/>
  <rect x="160" y="130" width="8" height="8" fill="black"/>
  
  <rect x="70" y="140" width="8" height="8" fill="black"/>
  <rect x="80" y="150" width="8" height="8" fill="black"/>
  <rect x="90" y="140" width="8" height="8" fill="black"/>
  <rect x="100" y="150" width="8" height="8" fill="black"/>
  <rect x="110" y="140" width="8" height="8" fill="black"/>
  <rect x="120" y="150" width="8" height="8" fill="black"/>
  
  <rect x="70" y="160" width="8" height="8" fill="black"/>
  <rect x="90" y="160" width="8" height="8" fill="black"/>
  <rect x="110" y="160" width="8" height="8" fill="black"/>
  <rect x="130" y="160" width="8" height="8" fill="black"/>
  
  <rect x="80" y="170" width="8" height="8" fill="black"/>
  <rect x="100" y="170" width="8" height="8" fill="black"/>
  <rect x="120" y="170" width="8" height="8" fill="black"/>
  
  <rect x="70" y="180" width="8" height="8" fill="black"/>
  <rect x="90" y="180" width="8" height="8" fill="black"/>
  <rect x="110" y="180" width="8" height="8" fill="black"/>
  <rect x="130" y="180" width="8" height="8" fill="black"/>
  
  <!-- Center UPI logo area -->
  <circle cx="100" cy="100" r="20" fill="white" stroke="black" stroke-width="2"/>
  <text x="100" y="105" text-anchor="middle" font-family="Arial, sans-serif" font-size="12" font-weight="bold" fill="black">UPI</text>
</svg>
